<?xml version="1.0" encoding="utf-8"?>
<!-- Generator: Adobe Illustrator 27.8.1, SVG Export Plug-In . SVG Version: 6.00 Build 0)  -->
<svg version="1.1" id="Layer_1" xmlns="http://www.w3.org/2000/svg" xmlns:xlink="http://www.w3.org/1999/xlink" x="0px" y="0px"
	 viewBox="0 0 111 151" style="enable-background:new 0 0 111 151;" xml:space="preserve">
<style type="text/css">
	.st0{fill:#FFFFFF;}
	.st1{filter:url(#Adobe_OpacityMaskFilter);}
	.st2{fill-rule:evenodd;clip-rule:evenodd;fill:#FFFFFF;}
	.st3{mask:url(#mask-3_00000161604230541685343270000001560659448311068575_);}
	.st4{fill:#FFFFFF;fill-opacity:0.2;}
	.st5{opacity:0.2;fill:#FFFFFF;enable-background:new    ;}
	.st6{filter:url(#Adobe_OpacityMaskFilter_00000080167359091631067630000007050344472155852190_);}
	.st7{mask:url(#mask-3_00000060016150498348587000000016581205591047307686_);fill:#FFFFFF;}
	.st8{filter:url(#Adobe_OpacityMaskFilter_00000081640137356450446380000014005028506793209790_);}
	.st9{mask:url(#mask-3_00000007392921514698314140000012988317498543775922_);fill:#FFFFFF;stroke:#000000;stroke-miterlimit:10;}
	.st10{fill:url(#SVGID_1_);stroke:#000000;stroke-width:0.5;stroke-miterlimit:10;}
	
		.st11{fill:url(#SVGID_00000145040578047743028890000017703529446451916468_);stroke:#000000;stroke-width:0.5;stroke-miterlimit:10;}
	
		.st12{fill:url(#SVGID_00000019660775312722171460000003517986439186389391_);stroke:#000000;stroke-width:0.5;stroke-miterlimit:10;}
	.st13{stroke:#000000;stroke-width:0.5;stroke-miterlimit:10;}
</style>
<g id="Page-1">
	<g id="styleguide" transform="translate(-664.000000, -1272.000000)">
		<g id="Group-16" transform="translate(40.000000, 1187.000000)">
			<g id="Group-9" transform="translate(114.000000, 0.000000)">
				<g id="Group-26" transform="translate(405.000000, 1.000000)">
					<g id="logo_lockup_firebase_vertical" transform="translate(105.193370, 83.977901)">
						<g id="_Group_">
							<g id="_Path_5">
								<path id="path-2_00000118368762231940865670000008096785769113684137_" class="st0" d="M95.8,33.6c-0.2-1.3-1.1-2.3-2.3-2.7
									c-1.2-0.4-2.6-0.1-3.5,0.8L72.3,49.6l-14-26.5c-0.6-1.1-1.7-1.9-3-1.9s-2.4,0.7-3,1.9l-7.6,14.5L25.4,1.9
									C23.9-1,19.5-0.2,19,3L0.5,121.2L50,148.9c3.1,1.7,6.9,1.7,10,0l50-27.7L95.8,33.6z"/>
							</g>
							<defs>
								<filter id="Adobe_OpacityMaskFilter" filterUnits="userSpaceOnUse" x="-5.9" y="0.1" width="122.1" height="154.3">
									<feColorMatrix  type="matrix" values="1 0 0 0 0  0 1 0 0 0  0 0 1 0 0  0 0 0 1 0"/>
								</filter>
							</defs>
							
								<mask maskUnits="userSpaceOnUse" x="-5.9" y="0.1" width="122.1" height="154.3" id="mask-3_00000161604230541685343270000001560659448311068575_">
								<g class="st1">
									<path id="path-2_00000165216975514596700290000017835217572480000418_" class="st2" d="M95.8,33.6
										c-0.2-1.3-1.1-2.3-2.3-2.7c-1.2-0.4-2.6-0.1-3.5,0.8L72.3,49.6l-14-26.5c-0.6-1.1-1.7-1.9-3-1.9s-2.4,0.7-3,1.9l-7.6,14.5
										L25.4,1.9C23.9-1,19.5-0.2,19,3L0.5,121.2L50,148.9c3.1,1.7,6.9,1.7,10,0l50-27.7L95.8,33.6z"/>
								</g>
							</mask>
							<g id="_Group_2" class="st3">
								<g transform="translate(-6.346125, -0.160154)">
									<g id="_Group_3">
										<path id="_Path_" class="st0" d="M6.8,121.3L25.4,3.2c0.5-3.2,4.9-4,6.4-1.1L51,37.7l7.6-14.5c0.6-1.1,1.8-1.8,3-1.8
											c1.3,0,2.4,0.7,3,1.8l51.7,98.1H6.8z"/>
										<g id="_Group_4" transform="translate(0.000000, 30.119310)">
											<g transform="matrix(1 0 0 1 2.980232e-08 0)" style="opacity:0.12;enable-background:new    ;">
												
													<image style="overflow:visible;" width="87" height="112" id="Bitmap" xlink:href="6D817118E982F4DB.png"  transform="matrix(0.8448 0 0 0.8448 0.4637 0)">
												</image>
											</g>
											<polygon id="Shape" class="st0" points="70.8,45.2 50.9,7.6 6.8,91.2 											"/>
										</g>
									</g>
									<g id="_Group_5" transform="translate(3.421930, 23.299844)">
										<g style="opacity:0.2;enable-background:new    ;">
											
												<image style="overflow:visible;" width="140" height="155" id="_Image_" xlink:href="6D817118E982F4D9.png"  transform="matrix(0.8469 0 0 0.8469 0.5984 0)">
											</image>
										</g>
										<g id="_Group_6" transform="translate(3.421930, 7.387755)">
											<path id="_Path_2" class="st0" d="M109.5,90.6L95.3,3.1c-0.2-1.3-1.1-2.3-2.3-2.7s-2.6-0.1-3.5,0.8L0,90.6l49.5,27.7
												c3.1,1.7,6.9,1.7,10,0L109.5,90.6z"/>
										</g>
									</g>
									<path id="_Compound_Path_" class="st4" d="M102.1,33.8c-0.2-1.3-1.1-2.3-2.3-2.7c-1.2-0.4-2.6-0.1-3.5,0.8L78.6,49.7
										l-14-26.5c-0.6-1.1-1.7-1.9-3-1.9c-1.3,0-2.4,0.7-3,1.9L51,37.7L31.7,2.1c-1.5-2.9-5.9-2.1-6.4,1.1L6.8,121.3H6.8l0.1,0.1
										l0.5,0.3l71.2-71.1l17.8-17.7c0.9-0.9,2.3-1.2,3.5-0.8c1.2,0.4,2.1,1.4,2.3,2.7l14,86.7l0.2-0.1L102.1,33.8z M7,121.2
										L25.4,4c0.5-3.2,4.9-4,6.4-1.1L51,38.6l7.6-14.5c0.6-1.1,1.8-1.8,3-1.8c1.3,0,2.4,0.7,3,1.8L78.4,50L7,121.2z"/>
									<path id="_Path_3" class="st5" d="M66.4,148.2c-3.1,1.7-6.9,1.7-10,0L6.9,120.6l-0.1,0.8L56.4,149c3.1,1.7,6.9,1.7,10,0
										l50-27.7l-0.1-0.8L66.4,148.2z"/>
								</g>
							</g>
							<defs>
								
									<filter id="Adobe_OpacityMaskFilter_00000076601924670363685040000008569911921949944463_" filterUnits="userSpaceOnUse" x="-26.9" y="-6.7" width="164.3" height="163.7">
									<feColorMatrix  type="matrix" values="1 0 0 0 0  0 1 0 0 0  0 0 1 0 0  0 0 0 1 0"/>
								</filter>
							</defs>
							
								<mask maskUnits="userSpaceOnUse" x="-26.9" y="-6.7" width="164.3" height="163.7" id="mask-3_00000060016150498348587000000016581205591047307686_">
								<g style="filter:url(#Adobe_OpacityMaskFilter_00000076601924670363685040000008569911921949944463_);">
									<path id="path-2_00000069394376024473301660000002235230598752285581_" class="st2" d="M95.8,33.6
										c-0.2-1.3-1.1-2.3-2.3-2.7c-1.2-0.4-2.6-0.1-3.5,0.8L72.3,49.6l-14-26.5c-0.6-1.1-1.7-1.9-3-1.9s-2.4,0.7-3,1.9l-7.6,14.5
										L25.4,1.9C23.9-1,19.5-0.2,19,3L0.5,121.2L50,148.9c3.1,1.7,6.9,1.7,10,0l50-27.7L95.8,33.6z"/>
								</g>
							</mask>
							<polygon id="_Path_4" class="st7" points="-26.9,-6.7 137.4,-6.7 137.4,157 -26.9,157 							"/>
							<defs>
								
									<filter id="Adobe_OpacityMaskFilter_00000025441350652830458920000010877827637053455793_" filterUnits="userSpaceOnUse" x="-0.1" y="-0.4" width="110.6" height="151">
									<feColorMatrix  type="matrix" values="1 0 0 0 0  0 1 0 0 0  0 0 1 0 0  0 0 0 1 0"/>
								</filter>
							</defs>
							
								<mask maskUnits="userSpaceOnUse" x="-0.1" y="-0.4" width="110.6" height="151" id="mask-3_00000007392921514698314140000012988317498543775922_">
								<g style="filter:url(#Adobe_OpacityMaskFilter_00000025441350652830458920000010877827637053455793_);">
									<path id="path-2_00000118369421486678350350000018263302352674433666_" class="st2" d="M95.8,33.6
										c-0.2-1.3-1.1-2.3-2.3-2.7c-1.2-0.4-2.6-0.1-3.5,0.8L72.3,49.6l-14-26.5c-0.6-1.1-1.7-1.9-3-1.9s-2.4,0.7-3,1.9l-7.6,14.5
										L25.4,1.9C23.9-1,19.5-0.2,19,3L0.5,121.2L50,148.9c3.1,1.7,6.9,1.7,10,0l50-27.7L95.8,33.6z"/>
								</g>
							</mask>
							<path id="_Path_5_00000124131587462860656710000003174896008909051787_" class="st9" d="M95.8,33.6c-0.2-1.3-1.1-2.3-2.3-2.7
								c-1.2-0.4-2.6-0.1-3.5,0.8L72.3,49.6l-14-26.5c-0.6-1.1-1.7-1.9-3-1.9s-2.4,0.7-3,1.9l-7.6,14.5L25.4,1.9
								C23.9-1,19.5-0.2,19,3L0.5,121.2L50,148.9c3.1,1.7,6.9,1.7,10,0l50-27.7L95.8,33.6z"/>
						</g>
					</g>
				</g>
			</g>
		</g>
	</g>
</g>
<linearGradient id="SVGID_1_" gradientUnits="userSpaceOnUse" x1="-8.6666" y1="118.6753" x2="82.3322" y2="52.4991">
	<stop  offset="0" style="stop-color:#FFFFFF;stop-opacity:0.1"/>
	<stop  offset="1" style="stop-color:#FFFFFF;stop-opacity:0"/>
</linearGradient>
<line class="st10" x1="72.2" y1="50.2" x2="1.2" y2="121.2"/>
<linearGradient id="SVGID_00000178168002455137517120000012175978267310772360_" gradientUnits="userSpaceOnUse" x1="-15.2984" y1="106.7789" x2="61.4715" y2="50.9503">
	<stop  offset="0" style="stop-color:#FFFFFF;stop-opacity:0.1"/>
	<stop  offset="1" style="stop-color:#FFFFFF;stop-opacity:0"/>
</linearGradient>
<line style="fill:url(#SVGID_00000178168002455137517120000012175978267310772360_);stroke:#000000;stroke-width:0.5;stroke-miterlimit:10;" x1="44.7" y1="37.7" x2="1.2" y2="120.2"/>
<linearGradient id="SVGID_00000134219120289495279660000013546550376052123064_" gradientUnits="userSpaceOnUse" x1="49.8792" y1="52.2422" x2="53.606" y2="49.532">
	<stop  offset="0" style="stop-color:#FFFFFF;stop-opacity:0.1"/>
	<stop  offset="1" style="stop-color:#FFFFFF;stop-opacity:0"/>
</linearGradient>
<line style="fill:url(#SVGID_00000134219120289495279660000013546550376052123064_);stroke:#000000;stroke-width:0.5;stroke-miterlimit:10;" x1="58.6" y1="63.8" x2="44.9" y2="38"/>
<polygon class="st13" points="44.5,37.9 1.8,119.9 58.3,63.5 "/>
</svg>
