<?xml version="1.0" encoding="utf-8"?>
<!-- Generator: Adobe Illustrator 27.8.1, SVG Export Plug-In . SVG Version: 6.00 Build 0)  -->
<svg version="1.1" id="Layer_1" xmlns="http://www.w3.org/2000/svg" xmlns:xlink="http://www.w3.org/1999/xlink" x="0px" y="0px"
	 viewBox="0 0 2192 2500" style="enable-background:new 0 0 2192 2500;" xml:space="preserve">
<style type="text/css">
	.st0{fill:#FFFFFF;}
	.st1{fill:#F9F9F9;}
	.st2{stroke:#000000;stroke-miterlimit:10;}
</style>
<path class="st0" d="M1916,490.9c-1.7-12.5-12.7-19.4-21.7-20.2c-9-0.8-200.2-14.9-200.2-14.9S1561.3,324,1546.7,309.4
	c-14.6-14.6-43.1-10.1-54.1-6.9c-1.6,0.5-29,8.9-74.3,22.9C1374,197.9,1295.7,80.6,1158,80.6c-3.8,0-7.7,0.2-11.6,0.4
	c-39.2-51.8-87.7-74.3-129.6-74.3c-320.8,0-474,401-522.1,604.8c-124.6,38.6-213.2,66.1-224.5,69.6c-69.6,21.8-71.8,24-80.9,89.6
	C182.5,820.3,0.4,2228,0.4,2228l1418.5,265.8l768.6-166.3C2187.5,2327.5,1917.7,503.4,1916,490.9L1916,490.9z M1339.9,349.7
	l-120,37.1c0-8.5,0.1-16.8,0.1-25.9c0-79.3-11-143.2-28.7-193.8C1262.3,176.1,1309.5,256.8,1339.9,349.7z M1103.3,182.9
	c19.7,49.4,32.6,120.4,32.6,216.1c0,4.9,0,9.4-0.1,13.9c-78.1,24.2-162.9,50.4-247.9,76.8C935.6,305.5,1025.1,216.5,1103.3,182.9
	L1103.3,182.9z M1008,92.7c13.8,0,27.8,4.7,41.1,13.9c-102.8,48.4-213,170.2-259.5,413.5l-195.9,60.7
	C648.2,395.2,777.6,92.7,1008,92.7L1008,92.7z"/>
<path class="st1" d="M1894.3,470.7c-9-0.8-200.2-14.9-200.2-14.9S1561.3,324,1546.7,309.4c-5.5-5.4-12.8-8.2-20.5-9.4L1419,2493.8
	l768.5-166.2c0,0-269.8-1824.1-271.5-1836.6C1914.3,478.4,1903.3,471.5,1894.3,470.7"/>
<path class="st2" d="M1158,895.4l-94.8,281.9c0,0-83-44.3-184.8-44.3c-149.2,0-156.7,93.6-156.7,117.2
	c0,128.7,335.6,178.1,335.6,479.7c0,237.3-150.5,390.1-353.4,390.1c-243.5,0-368-151.5-368-151.5l65.2-215.4
	c0,0,128,109.9,236,109.9c70.6,0,99.3-55.6,99.3-96.2c0-167.9-275.3-175.4-275.3-451.4c0-232.3,166.7-457,503.2-457
	C1093.9,858.3,1158,895.4,1158,895.4"/>
</svg>
