<?xml version="1.0" encoding="utf-8"?>
<!-- Generator: Adobe Illustrator 27.7.0, SVG Export Plug-In . SVG Version: 6.00 Build 0)  -->
<svg version="1.1" id="Layer_1" xmlns="http://www.w3.org/2000/svg" xmlns:xlink="http://www.w3.org/1999/xlink" x="0px" y="0px"
	 viewBox="0 0 617 88" style="enable-background:new 0 0 617 88;" xml:space="preserve">
<style type="text/css">
	.st0{fill:#573D98;}
</style>
<path class="st0" d="M128.9,78V5.1h23.6l15,47.7h0.6l14.8-47.7h23.7V78h-15.1V49.2l0.2-27.8H191L173.9,78h-12.2l-17.1-56.6h-0.8
	l0.3,28V78H128.9z M244.4,78.9c-4.1,0-7.7-0.6-11-1.9c-3.3-1.2-6.1-3-8.5-5.4s-4.2-5.3-5.5-8.8c-1.3-3.4-1.9-7.3-1.9-11.6
	c0-5.5,1.1-10.4,3.2-14.6c2.1-4.2,5.2-7.4,9.2-9.8c4-2.3,8.8-3.5,14.5-3.5c4,0,7.6,0.6,10.9,1.9s6.1,3.1,8.5,5.5s4.2,5.3,5.5,8.7
	c1.3,3.4,1.9,7.3,1.9,11.7c0,5.5-1.1,10.3-3.2,14.4c-2.1,4.2-5.2,7.4-9.1,9.8C254.9,77.7,250.1,78.9,244.4,78.9z M244.3,67
	c2.4,0,4.5-0.6,6.4-1.8c1.8-1.2,3.2-2.9,4.2-5.2s1.4-5.3,1.4-8.8c0-2.7-0.3-5-0.8-7s-1.3-3.6-2.4-5c-1.1-1.3-2.3-2.3-3.8-2.9
	c-1.5-0.6-3.1-1-4.9-1c-2.4,0-4.5,0.6-6.4,1.7c-1.8,1.1-3.2,2.9-4.2,5.2s-1.5,5.3-1.5,8.9c0,2.7,0.3,5,0.9,6.9
	c0.6,2,1.4,3.6,2.5,4.9s2.3,2.3,3.8,3C240.9,66.7,242.5,67,244.3,67z M298.3,78c-3.6,0-6.4-0.5-8.4-1.6s-3.4-2.6-4.1-4.5
	c-0.8-2-1.2-4.3-1.2-7V36.2H275V24.4h9.6V9.8l14.6-1.4v16H310v11.8h-10.8v25.9c0,1.6,0.4,2.7,1.1,3.2s1.8,0.8,3.2,0.8h6.5V78H298.3z
	 M340.2,79c-7.8,0-13.8-1.6-18.1-5c-4.2-3.3-6.3-7.6-6.2-12.9h14.4c0.1,2.9,1.1,4.9,3,6.1s4.4,1.9,7.3,1.9c3,0,5.3-0.5,6.8-1.6
	s2.3-2.5,2.3-4.2c0-1.6-0.4-2.8-1.2-3.6c-0.8-0.8-2-1.5-3.6-1.9s-3.7-0.8-6.2-1.1c-3-0.4-5.8-0.9-8.4-1.6c-2.6-0.6-4.8-1.5-6.8-2.7
	s-3.5-2.7-4.6-4.6c-1.1-1.9-1.7-4.4-1.7-7.3c0-3.8,1-6.9,3-9.4s4.7-4.4,8.2-5.7s7.6-1.9,12.2-1.9s8.6,0.7,11.9,2
	c3.4,1.3,6,3.2,7.9,5.8c1.9,2.5,2.8,5.6,2.9,9.1H349c0-1.5-0.4-2.8-1.1-3.8s-1.8-1.8-3-2.4c-1.3-0.5-2.8-0.8-4.5-0.8
	c-2.7,0-4.8,0.5-6.2,1.6c-1.4,1-2.1,2.4-2.1,4c0,1.3,0.4,2.4,1.2,3.2c0.8,0.8,2,1.4,3.7,1.9c1.7,0.4,3.8,0.8,6.4,1.1
	c2.7,0.3,5.4,0.8,8,1.4c2.6,0.6,4.8,1.5,6.8,2.6c2,1.2,3.6,2.8,4.7,4.8s1.7,4.7,1.7,7.9c0,5.9-2.2,10.3-6.5,13
	C353.7,77.6,347.8,79,340.2,79z M391.7,78c-3.6,0-6.4-0.5-8.4-1.6s-3.4-2.6-4.1-4.5c-0.8-2-1.2-4.3-1.2-7V36.2h-9.6V24.4h9.6V9.8
	l14.6-1.4v16h10.8v11.8h-10.8v25.9c0,1.6,0.4,2.7,1.1,3.2s1.8,0.8,3.2,0.8h6.5V78H391.7z M431.1,78.9c-4.1,0-7.6-0.8-10.5-2.4
	s-5-4-6.5-7.1c-1.4-3.2-2.2-7-2.2-11.6V24.4h14.7v29.5c0,2.8,0.3,5.2,1,7.1c0.7,1.9,1.8,3.4,3.3,4.5c1.5,1,3.5,1.5,5.9,1.5
	c2.5,0,4.6-0.6,6.3-1.8c1.7-1.2,3.1-2.8,4-4.8s1.4-4.1,1.4-6.5V24.4h14.7V78h-14.1l-0.6-9.8h-0.7c-1.3,3.5-3.4,6.1-6.5,7.9
	C438.4,78,435,78.9,431.1,78.9z M492.9,78.9c-3.2,0-6.1-0.6-8.8-1.7c-2.6-1.1-4.9-2.9-6.8-5.2c-1.9-2.3-3.4-5.2-4.4-8.7
	c-1-3.5-1.5-7.5-1.5-12.1c0-6.2,0.9-11.4,2.7-15.5c1.8-4.1,4.3-7.2,7.5-9.2c3.2-2.1,7-3.1,11.2-3.1c2.8,0,5.3,0.4,7.5,1.3
	s4.2,2.1,5.8,3.6c1.6,1.5,2.9,3.3,3.7,5.4h0.8V5.1h14.7V78h-14.2l-0.5-9.4h-0.8c-1.2,3.1-3.3,5.6-6.3,7.5
	C500.6,78,497,78.9,492.9,78.9z M498.5,67c2.7,0,5-0.6,6.8-1.9c1.8-1.3,3.1-2.9,4-5c0.9-2,1.3-4.2,1.3-6.4v-5.1c0-1.7-0.2-3.4-0.7-5
	s-1.2-3-2.2-4.2s-2.3-2.2-3.8-3c-1.5-0.7-3.3-1.1-5.3-1.1c-2.4,0-4.5,0.6-6.3,1.7c-1.8,1.1-3.2,2.9-4.2,5.2s-1.5,5.3-1.5,9
	c0,3.5,0.5,6.5,1.5,8.8c1,2.4,2.4,4.1,4.2,5.2C494,66.4,496.1,67,498.5,67z M538,17.5V5.1h14.7v12.4H538z M538,78V24.4h14.7V78H538z
	 M589,78.9c-4.1,0-7.7-0.6-11-1.9c-3.3-1.2-6.1-3-8.5-5.4s-4.2-5.3-5.5-8.8c-1.3-3.4-1.9-7.3-1.9-11.6c0-5.5,1.1-10.4,3.2-14.6
	c2.1-4.2,5.2-7.4,9.2-9.8c4-2.3,8.8-3.5,14.5-3.5c4,0,7.6,0.6,10.9,1.9c3.3,1.3,6.1,3.1,8.4,5.5c2.4,2.4,4.2,5.3,5.5,8.7
	c1.3,3.4,2,7.3,2,11.7c0,5.5-1.1,10.3-3.2,14.4c-2.1,4.2-5.2,7.4-9.1,9.8C599.5,77.7,594.7,78.9,589,78.9z M588.9,67
	c2.4,0,4.5-0.6,6.3-1.8c1.8-1.2,3.2-2.9,4.2-5.2s1.5-5.3,1.5-8.8c0-2.7-0.3-5-0.8-7s-1.3-3.6-2.4-5c-1.1-1.3-2.3-2.3-3.8-2.9
	c-1.5-0.6-3.1-1-4.9-1c-2.4,0-4.5,0.6-6.3,1.7c-1.8,1.1-3.2,2.9-4.2,5.2s-1.5,5.3-1.5,8.9c0,2.7,0.3,5,0.8,6.9
	c0.6,2,1.4,3.6,2.5,4.9s2.3,2.3,3.8,3C585.5,66.7,587.1,67,588.9,67z"/>
</svg>
