<?xml version="1.0" encoding="UTF-8"?>
<svg id="uuid-a98a189c-0627-4ce7-92a5-a1ae6083cda4" data-name="Layer 2" xmlns="http://www.w3.org/2000/svg" viewBox="0 0 462.72 757.76">
  <g id="uuid-bfc47022-6dea-4ae9-8711-a578706a0db0" data-name="Layer 1">
    <path d="m435.03,7.92l-182.83,347.53-7.6,14.44-5.14,9.76c-2.89,5.4-11.68,5.41-14.6.01l-5.23-9.88-7.66-14.45L27.58,7.34C21.08-4.93,0-.89,0,12.61v543.59c0,111.32,103.59,201.56,231.37,201.56s231.35-90.24,231.35-201.56V13.18c0-13.57-21.2-17.6-27.69-5.26Zm-34.66,535.86c0,96.31-75.67,174.4-169.01,174.4s-169.01-78.09-169.01-174.4v-235.45c0-9.92-.33-25.41-.98-46.46-.33-10.53-.57-19.72-.75-27.55-.15-7.84-.24-14.35-.24-19.49,0-3.09,4.8-4.02,6.3-1.23l83.43,153.81,9.88,18.23,25.54,47.07c4.22,7.76,10.8,14.12,18.8,18.54,8,4.41,17.42,6.89,27.28,6.89,19.77,0,37.77-9.97,46.16-25.57l25.15-46.83,9.82-18.27,82.58-153.71c1.51-2.8,6.32-1.86,6.3,1.23-.06,17.84-.27,34.74-.63,50.72-.45,19.82-.66,34.03-.66,42.61v235.45Z" style="fill: #5416b4;"/>
  </g>
</svg>