<?xml version="1.0" encoding="utf-8"?>
<!-- Generator: Adobe Illustrator 27.8.1, SVG Export Plug-In . SVG Version: 6.00 Build 0)  -->
<svg version="1.1"
	 id="Layer_1" xmlns:dc="http://purl.org/dc/elements/1.1/" xmlns:rdf="http://www.w3.org/1999/02/22-rdf-syntax-ns#" xmlns:cc="http://creativecommons.org/ns#" xmlns:svg="http://www.w3.org/2000/svg"
	 xmlns="http://www.w3.org/2000/svg" xmlns:xlink="http://www.w3.org/1999/xlink" x="0px" y="0px" viewBox="0 0 180 185"
	 style="enable-background:new 0 0 180 185;" xml:space="preserve">
<style type="text/css">
	.st0{fill:#B3B3B3;}
	.st1{fill:#E0E0E0;}
	.st2{fill:#FFFFFF;}
</style>
<g id="g48">
	<polygon id="polygon50" class="st0" points="17.1,141.8 86.8,180.1 156.9,141.3 170,33 86.7,4.4 4.1,33.5 	"/>
	<polygon id="polygon52" class="st1" points="86.6,171 149.5,136.1 161.7,39.2 86.6,13.6 	"/>
	<polygon id="polygon54" class="st2" points="86.5,171 86.5,13.6 13.3,39.7 24.5,136.6 	"/>
	<path id="path56" d="M107.2,97.4L86.5,107H64.7l-10.3,25.6l-19,0.4L86.6,19.3L107.2,97.4z M105.2,92.5L86.7,55.8L71.5,91.9h15.1
		L105.2,92.5z"/>
	<polygon id="polygon58" points="104,91.9 86.6,91.9 86.5,107 110.6,107 121.8,133 140,133.4 86.5,19.3 86.7,55.8 	"/>
</g>
</svg>
