<?xml version="1.0" encoding="utf-8"?>
<!-- Generator: Adobe Illustrator 27.8.1, SVG Export Plug-In . SVG Version: 6.00 Build 0)  -->
<svg version="1.1" id="Layer_1" xmlns="http://www.w3.org/2000/svg" xmlns:xlink="http://www.w3.org/1999/xlink" x="0px" y="0px"
	 viewBox="0 0 2500 2148" style="enable-background:new 0 0 2500 2148;" xml:space="preserve">
<style type="text/css">
	.st0{fill:#EFE8E8;}
	.st1{fill:#FFFFFF;}
	.st2{fill:#969292;}
</style>
<path class="st0" d="M2401.6,1649.5c-133.4,69.5-824.4,353.6-971.5,430.3c-147.1,76.7-228.8,76-345,20.4
	c-116.2-55.6-851.5-352.6-984-415.9C34.8,1652.7,0,1626,0,1600.8v-252.6c0,0,957.3-208.4,1111.9-263.9
	c154.5-55.4,208.2-57.4,339.7-9.3c131.5,48.2,918,190.1,1047.9,237.7l-0.1,249.1C2499.5,1586.7,2469.5,1614.1,2401.6,1649.5"/>
<path class="st1" d="M2401.5,1398.3c-133.4,69.5-824.4,353.6-971.5,430.3c-147.1,76.7-228.8,76-345,20.4
	c-116.2-55.5-851.5-352.6-984-415.9c-132.5-63.3-135.2-106.9-5.1-157.8c130.1-51,861.4-337.9,1016-393.3
	c154.5-55.4,208.2-57.4,339.7-9.3c131.5,48.2,818.4,321.6,948.3,369.2C2529.9,1289.6,2534.9,1328.8,2401.5,1398.3"/>
<path class="st0" d="M2401.6,1240.7c-133.4,69.5-824.4,353.6-971.5,430.4c-147.1,76.7-228.8,75.9-345,20.4
	c-116.2-55.5-851.5-352.6-984-415.9C34.8,1243.9,0,1217.2,0,1192V939.3c0,0,957.3-208.4,1111.9-263.8
	c154.5-55.4,208.2-57.5,339.7-9.3c131.5,48.2,918,190,1047.9,237.7l-0.1,249.1C2499.5,1177.9,2469.5,1205.3,2401.6,1240.7"/>
<path class="st1" d="M2401.5,989.6c-133.4,69.5-824.4,353.6-971.5,430.3c-147.1,76.7-228.8,75.9-345,20.4
	c-116.2-55.5-851.5-352.6-984-415.9c-132.5-63.3-135.2-106.9-5.1-157.8c130.1-50.9,861.4-337.9,1016-393.3
	c154.5-55.4,208.2-57.4,339.7-9.3c131.5,48.2,818.4,321.5,948.3,369.2C2529.9,880.8,2534.9,920,2401.5,989.6"/>
<path class="st0" d="M2401.6,816.8c-133.4,69.5-824.4,353.6-971.5,430.4c-147.1,76.7-228.8,75.9-345,20.4
	C968.8,1212,233.5,914.9,101,851.6C34.8,820,0,793.3,0,768.1V515.4c0,0,957.3-208.4,1111.9-263.8c154.5-55.5,208.2-57.4,339.7-9.3
	c131.5,48.2,918,190,1047.9,237.7l-0.1,249.1C2499.5,754,2469.5,781.4,2401.6,816.8"/>
<path class="st1" d="M2401.5,565.6c-133.4,69.5-824.4,353.6-971.5,430.3c-147.1,76.7-228.8,75.9-345,20.4
	c-116.2-55.6-851.5-352.6-984-415.9c-132.5-63.3-135.2-106.9-5.1-157.8c130.1-50.9,861.4-337.8,1016-393.3
	c154.5-55.4,208.2-57.4,339.7-9.3c131.5,48.2,818.4,321.6,948.3,369.2C2529.9,456.8,2534.9,496.1,2401.5,565.6"/>
<path d="M1555.2,319.8l-214.9,22.3l-48.1,115.8l-77.7-129.2l-248.1-22.3l185.2-66.8l-55.6-102.5l173.4,67.8l163.4-53.5l-44.2,106
	L1555.2,319.8 M1279.3,881.4L878.3,715.1l574.7-88.2L1279.3,881.4 M723.3,384.2c169.6,0,307.2,53.3,307.2,119.1
	c0,65.8-137.5,119.1-307.2,119.1S416.1,569,416.1,503.2C416.1,437.5,553.7,384.2,723.3,384.2"/>
<path class="st2" d="M1809.2,351.5l340.1,134.4l-339.8,134.3L1809.2,351.5"/>
<path class="st0" d="M1432.9,500.3l376.3-148.8l0.3,268.7l-36.9,14.4L1432.9,500.3"/>
</svg>
