<?xml version="1.0" encoding="utf-8"?>
<!-- Generator: Adobe Illustrator 27.8.1, SVG Export Plug-In . SVG Version: 6.00 Build 0)  -->
<svg version="1.1" id="Layer_1" xmlns="http://www.w3.org/2000/svg" xmlns:xlink="http://www.w3.org/1999/xlink" x="0px" y="0px"
	 viewBox="0 0 90.3 109.1" style="enable-background:new 0 0 90.3 109.1;" xml:space="preserve">
<g>
	<path d="M77,31.7l-8.1,8.1c13.3,13.3,13.3,34.7,0,47.8c-13.3,13.3-34.7,13.3-47.8,0c-13.3-13.3-13.3-34.7,0-47.8l0,0l21.1-21.1l3-3
		l0,0V-0.2L13.4,31.6c-17.7,17.7-17.7,46.3,0,64s46.3,17.7,63.7,0C94.7,77.9,94.7,49.5,77,31.7z"/>
	<ellipse transform="matrix(1.850904e-02 -0.9998 0.9998 1.850904e-02 36.0732 84.5472)" cx="61.1" cy="23.9" rx="5.9" ry="5.9"/>
</g>
</svg>
